{"title":"Underworld Rise of the Lycans (2009) BRRip 1080p [DD 5.1 Origina","uid":9801164,"size":3134125244,"categoryP":"video","categoryS":"hd___movies","magnet":"?xt=urn:btih:3682f6b4c1b75d0ab878e3338cca94b7fd0e3bd3&amp;dn=Underworld+Rise+of+the+Lycans+%282009%29+BRRip+1080p+%5BDD+5.1+Origina&amp;tr=udp%3A%2F%2Ftracker.openbittorrent.com%3A80&amp;tr=udp%3A%2F%2Fopen.demonii.com%3A1337&amp;tr=udp%3A%2F%2Ftracker.coppersurfer.tk%3A6969&amp;tr=udp%3A%2F%2Fexodus.desync.com%3A6969","seeders":0,"leechers":2,"uploader":"SaNRiM","files":-1,"time":1395380239,"description":"Storyline\n\nThe prequel story traces the origins of the centuries-old blood feud between the aristocratic vampires and their onetime slaves, the Lycans. In the Dark Ages, a young Lycan named Lucian emerges as a powerful leader who rallies the werewolves to rise up against Viktor, the cruel vampire king who has enslaved them. Lucian is joined by his secret lover, Sonja, in his battle against the Vampire army and his struggle for Lycan freedom.\n\n\n\nTorrent Info\n\nGeneral\n\nUnique ID : 229788201352730834240978175165803441522 (0xACDF9908739A5AA2BD4B968E02D2AD72)\nComplete name : Underworld Rise of the Lycans (2009) BRRip 1080p [DD 5.1 Original Multi-Audio] [English-Hindi-Tamil-Telugu] ~SaNRiM~.mkv\nFormat : Matroska\nFormat version : Version 4 / Version 2\nFile size : 2.90 GiB\nDuration : 1h 32mn\nOverall bit rate : 4 494 Kbps\nEncoded date : UTC 2014-03-18 15:51:32\nWriting library : libebml v1.3.0 + libmatroska v1.4.1\n\n\nVideo\n\nID : 1\nFormat : AVC\nFormat/Info : Advanced Video Codec\nFormat profile : &lt;a class=&quot;__cf_email__&quot; href=&quot;/cdn-cgi/l/email-protection&quot; data-cfemail=&quot;84ccede3ecc4c8b0aab4&quot;&gt;[email&amp;#160;protected]&lt;/a&gt;&lt;script cf-hash='f9e31' type=&quot;text/javascript&quot;&gt;\n/* &lt;![CDATA[ */!function(){try{var t=&quot;currentScript&quot;in document?document.currentScript:function(){for(var t=document.getElementsByTagName(&quot;script&quot;),e=t.length;e--;)if(t[e].getAttribute(&quot;cf-hash&quot;))return t[e]}();if(t&amp;&amp;t.previousSibling){var e,r,n,i,c=t.previousSibling,a=c.getAttribute(&quot;data-cfemail&quot;);if(a){for(e=&quot;&quot;,r=parseInt(a.substr(0,2),16),n=2;a.length-n;n+=2)i=parseInt(a.substr(n,2),16)^r,e+=String.fromCharCode(i);e=document.createTextNode(e),c.parentNode.replaceChild(e,c)}}}catch(u){}}();/* ]]&gt; */&lt;/script&gt;\nFormat settings, CABAC : Yes\nFormat settings, ReFrames : 4 frames\nCodec ID : V_MPEG4/ISO/AVC\nDuration : 1h 32mn\nBit rate : 2 612 Kbps\nWidth : 1 920 pixels\nHeight : 800 pixels\nDisplay aspect ratio : 2.40:1\nFrame rate mode : Constant\nFrame rate : 23.976 fps\nColor space : YUV\nChroma subsampling : 4:2:0\nBit depth : 8 bits\nScan type : Progressive\nBits/(Pixel*Frame) : 0.071\nStream size : 1.69 GiB (58%)\nTitle : ~SaNRiM~\nWriting library : x264 core 133 r2334 a3ac64b\nLanguage : English\nDefault : Yes\nForced : No\n\n\nAudio #1\n\nID : 2\nFormat : AC-3\nFormat/Info : Audio Coding 3\nMode extension : CM (complete main)\nFormat settings, Endianness : Big\nCodec ID : A_AC3\nDuration : 1h 32mn\nBit rate mode : Constant\nBit rate : 448 Kbps\nChannel(s) : 6 channels\nChannel positions : Front: L C R, Side: L R, LFE\nSampling rate : 48.0 KHz\nBit depth : 16 bits\nCompression mode : Lossy\nStream size : 296 MiB (10%)\nTitle : ~SaNRiM~\nLanguage : Hindi\nDefault : Yes\nForced : No\n\n\nAudio #2\n\nID : 3\nFormat : AC-3\nFormat/Info : Audio Coding 3\nMode extension : CM (complete main)\nFormat settings, Endianness : Big\nCodec ID : A_AC3\nDuration : 1h 32mn\nBit rate mode : Constant\nBit rate : 448 Kbps\nChannel(s) : 6 channels\nChannel positions : Front: L C R, Side: L R, LFE\nSampling rate : 48.0 KHz\nBit depth : 16 bits\nCompression mode : Lossy\nStream size : 296 MiB (10%)\nTitle : ~SaNRiM~\nLanguage : Tamil\nDefault : No\nForced : No\n\n\nAudio #3\n\nID : 4\nFormat : AC-3\nFormat/Info : Audio Coding 3\nMode extension : CM (complete main)\nFormat settings, Endianness : Big\nCodec ID : A_AC3\nDuration : 1h 32mn\nBit rate mode : Constant\nBit rate : 448 Kbps\nChannel(s) : 6 channels\nChannel positions : Front: L C R, Side: L R, LFE\nSampling rate : 48.0 KHz\nBit depth : 16 bits\nCompression mode : Lossy\nStream size : 296 MiB (10%)\nTitle : ~SaNRiM~\nLanguage : Telugu\nDefault : No\nForced : No\n\n\nAudio #4\n\nID : 5\nFormat : AC-3\nFormat/Info : Audio Coding 3\nMode extension : CM (complete main)\nFormat settings, Endianness : Big\nCodec ID : A_AC3\nDuration : 1h 32mn\nBit rate mode : Constant\nBit rate : 448 Kbps\nChannel(s) : 6 channels\nChannel positions : Front: L C R, Side: L R, LFE\nSampling rate : 48.0 KHz\nBit depth : 16 bits\nCompression mode : Lossy\nStream size : 296 MiB (10%)\nTitle : ~SaNRiM~\nLanguage : English\nDefault : No\nForced : No\n\n\nText #1\n\nID : 6\nFormat : PGS\nMuxing mode : zlib\nCodec ID : S_HDMV/PGS\nCodec ID/Info : The same subtitle format used on BDs/HD-DVDs\nTitle : ~SaNRiM~\nLanguage : Hindi\nDefault : Yes\nForced : No\n\n\nText #2\n\nID : 7\nFormat : PGS\nMuxing mode : zlib\nCodec ID : S_HDMV/PGS\nCodec ID/Info : The same subtitle format used on BDs/HD-DVDs\nTitle : ~SaNRiM~\nLanguage : English\nDefault : No\nForced : No\n\n\n\nScreens\n &lt;a href=&quot;\nhttp://someimage.com/9ZbTHTr&quot; rel=&quot;nofollow&quot; target=&quot;_NEW&quot;&gt;\nhttp://someimage.com/9ZbTHTr&lt;/a&gt; &lt;a href=&quot;\nhttp://someimage.com/RxojzcJ&quot; rel=&quot;nofollow&quot; target=&quot;_NEW&quot;&gt;\nhttp://someimage.com/RxojzcJ&lt;/a&gt; &lt;a href=&quot;\nhttp://someimage.com/uHyNjZe&quot; rel=&quot;nofollow&quot; target=&quot;_NEW&quot;&gt;\nhttp://someimage.com/uHyNjZe&lt;/a&gt; &lt;a href=&quot;\nhttp://someimage.com/RfMLBG0&quot; rel=&quot;nofollow&quot; target=&quot;_NEW&quot;&gt;\nhttp://someimage.com/RfMLBG0&lt;/a&gt; &lt;a href=&quot;\nhttp://someimage.com/vV0W2NI&quot; rel=&quot;nofollow&quot; target=&quot;_NEW&quot;&gt;\nhttp://someimage.com/vV0W2NI&lt;/a&gt; &lt;a href=&quot;\nhttp://someimage.com/0T8K602&quot; rel=&quot;nofollow&quot; target=&quot;_NEW&quot;&gt;\nhttp://someimage.com/0T8K602&lt;/a&gt; &lt;a href=&quot;\nhttp://someimage.com/ZOivcqq&quot; rel=&quot;nofollow&quot; target=&quot;_NEW&quot;&gt;\nhttp://someimage.com/ZOivcqq&lt;/a&gt; &lt;a href=&quot;\nhttp://someimage.com/W09ya2r&quot; rel=&quot;nofollow&quot; target=&quot;_NEW&quot;&gt;\nhttp://someimage.com/W09ya2r&lt;/a&gt; &lt;a href=&quot;\nhttp://someimage.com/k7N7iBA&quot; rel=&quot;nofollow&quot; target=&quot;_NEW&quot;&gt;\nhttp://someimage.com/k7N7iBA&lt;/a&gt; &lt;a href=&quot;\nhttp://someimage.com/3OtU4hX&quot; rel=&quot;nofollow&quot; target=&quot;_NEW&quot;&gt;\nhttp://someimage.com/3OtU4hX&lt;/a&gt; &lt;a href=&quot;\nhttp://someimage.com/AZGfFWx&quot; rel=&quot;nofollow&quot; target=&quot;_NEW&quot;&gt;\nhttp://someimage.com/AZGfFWx&lt;/a&gt; &lt;a href=&quot;\nhttp://someimage.com/oQmrxy3&quot; rel=&quot;nofollow&quot; target=&quot;_NEW&quot;&gt;\nhttp://someimage.com/oQmrxy3&lt;/a&gt; &lt;a href=&quot;\nhttp://someimage.com/YeuVb8E&quot; rel=&quot;nofollow&quot; target=&quot;_NEW&quot;&gt;\nhttp://someimage.com/YeuVb8E&lt;/a&gt; &lt;a href=&quot;\nhttp://someimage.com/6lERaKn&quot; rel=&quot;nofollow&quot; target=&quot;_NEW&quot;&gt;\nhttp://someimage.com/6lERaKn&lt;/a&gt; &lt;a href=&quot;\nhttp://someimage.com/kGr9vFu&quot; rel=&quot;nofollow&quot; target=&quot;_NEW&quot;&gt;\nhttp://someimage.com/kGr9vFu&lt;/a&gt; &lt;a href=&quot;\nhttp://someimage.com/zFSFIdw&quot; rel=&quot;nofollow&quot; target=&quot;_NEW&quot;&gt;\nhttp://someimage.com/zFSFIdw&lt;/a&gt; &lt;a href=&quot;\nhttp://someimage.com/juWXjgs&quot; rel=&quot;nofollow&quot; target=&quot;_NEW&quot;&gt;\nhttp://someimage.com/juWXjgs&lt;/a&gt; &lt;a href=&quot;\nhttp://someimage.com/uj1UHV1&quot; rel=&quot;nofollow&quot; target=&quot;_NEW&quot;&gt;\nhttp://someimage.com/uj1UHV1&lt;/a&gt; &lt;a href=&quot;\nhttp://someimage.com/G9vhQUA&quot; rel=&quot;nofollow&quot; target=&quot;_NEW&quot;&gt;\nhttp://someimage.com/G9vhQUA&lt;/a&gt; &lt;a href=&quot;\nhttp://someimage.com/2IlQjxv&quot; rel=&quot;nofollow&quot; target=&quot;_NEW&quot;&gt;\nhttp://someimage.com/2IlQjxv&lt;/a&gt; &lt;a href=&quot;\nhttp://someimage.com/8MLkmS3&quot; rel=&quot;nofollow&quot; target=&quot;_NEW&quot;&gt;\nhttp://someimage.com/8MLkmS3&lt;/a&gt;\n\n\n\n\n                   A BIG THANKS TO DGrea8 FOR AUDIO\n\n\n\n                  If you like my work please comment\n                          Any request? Just PM me\n                       Please seed long after download\n                         Thank you &amp; enjoy the best\n                                 ~SaNRiM~","torrent":{"xt":"urn:btih:3682f6b4c1b75d0ab878e3338cca94b7fd0e3bd3","amp;dn":"Underworld+Rise+of+the+Lycans+%282009%29+BRRip+1080p+%5BDD+5.1+Origina","amp;tr":["udp%3A%2F%2Ftracker.openbittorrent.com%3A80","udp%3A%2F%2Fopen.demonii.com%3A1337","udp%3A%2F%2Ftracker.coppersurfer.tk%3A6969","udp%3A%2F%2Fexodus.desync.com%3A6969"],"infoHash":"3682f6b4c1b75d0ab878e3338cca94b7fd0e3bd3","infoHashBuffer":{"type":"Buffer","data":[54,130,246,180,193,183,93,10,184,120,227,51,140,202,148,183,253,14,59,211]},"announce":[],"urlList":[]}}